<svg width="33" height="32" viewBox="0 0 33 32" fill="none" xmlns="http://www.w3.org/2000/svg">
<path d="M29.2477 13.3887H28.1737V13.3334H16.1737V18.6667H23.709C22.6097 21.7714 19.6557 24.0001 16.1737 24.0001C11.7557 24.0001 8.17367 20.4181 8.17367 16.0001C8.17367 11.5821 11.7557 8.00008 16.1737 8.00008C18.213 8.00008 20.0683 8.76941 21.481 10.0261L25.2523 6.25475C22.871 4.03541 19.6857 2.66675 16.1737 2.66675C8.81033 2.66675 2.84033 8.63675 2.84033 16.0001C2.84033 23.3634 8.81033 29.3334 16.1737 29.3334C23.537 29.3334 29.507 23.3634 29.507 16.0001C29.507 15.1061 29.415 14.2334 29.2477 13.3887Z" fill="#FFC107"/>
<path d="M4.37744 9.79408L8.75811 13.0067C9.94344 10.0721 12.8141 8.00008 16.1734 8.00008C18.2128 8.00008 20.0681 8.76941 21.4808 10.0261L25.2521 6.25475C22.8708 4.03541 19.6854 2.66675 16.1734 2.66675C11.0521 2.66675 6.61077 5.55808 4.37744 9.79408Z" fill="#FF3D00"/>
<path d="M16.1752 29.3333C19.6192 29.3333 22.7485 28.0153 25.1145 25.872L20.9878 22.38C19.6042 23.4322 17.9135 24.0013 16.1752 24C12.7072 24 9.76251 21.7886 8.65318 18.7026L4.30518 22.0526C6.51184 26.3706 10.9932 29.3333 16.1752 29.3333Z" fill="#4CAF50"/>
<path d="M29.2483 13.3887H28.1743V13.3333H16.1743V18.6667H23.7097C23.1838 20.1443 22.2366 21.4355 20.985 22.3807L20.987 22.3793L25.1136 25.8713C24.8216 26.1367 29.5076 22.6667 29.5076 16C29.5076 15.106 29.4156 14.2333 29.2483 13.3887Z" fill="#1976D2"/>
</svg>
