<svg width="55" height="24" viewBox="0 0 55 24" fill="none" xmlns="http://www.w3.org/2000/svg">
<g clip-path="url(#clip0_3_1402)">
<path d="M11 16L7 12M7 12L11 8M7 12H21M16 16V17C16 18.6569 14.6569 20 13 20H6C4.34315 20 3 18.6569 3 17V7C3 5.34315 4.34315 4 6 4H13C14.6569 4 16 5.34315 16 7V8" stroke="#7D6EE9" stroke-width="1.5" stroke-linecap="round" stroke-linejoin="round"/>
<path d="M25.224 16.5C25.144 16.5 25.076 16.472 25.02 16.416C24.964 16.36 24.936 16.292 24.936 16.212V8.4C24.936 8.312 24.964 8.24 25.02 8.184C25.076 8.128 25.144 8.1 25.224 8.1H28.704C29.352 8.1 29.88 8.2 30.288 8.4C30.696 8.592 30.996 8.86 31.188 9.204C31.388 9.548 31.488 9.948 31.488 10.404C31.488 10.708 31.432 10.976 31.32 11.208C31.216 11.432 31.084 11.616 30.924 11.76C30.772 11.904 30.62 12.016 30.468 12.096C30.78 12.24 31.056 12.48 31.296 12.816C31.536 13.152 31.656 13.552 31.656 14.016C31.656 14.496 31.548 14.924 31.332 15.3C31.116 15.676 30.796 15.972 30.372 16.188C29.948 16.396 29.424 16.5 28.8 16.5H25.224ZM26.604 15.228H28.608C29.04 15.228 29.368 15.112 29.592 14.88C29.816 14.64 29.928 14.352 29.928 14.016C29.928 13.664 29.812 13.372 29.58 13.14C29.356 12.908 29.032 12.792 28.608 12.792H26.604V15.228ZM26.604 11.544H28.488C28.912 11.544 29.228 11.444 29.436 11.244C29.652 11.036 29.76 10.768 29.76 10.44C29.76 10.104 29.652 9.844 29.436 9.66C29.228 9.468 28.912 9.372 28.488 9.372H26.604V11.544ZM33.1146 16.5C33.0426 16.5 32.9786 16.476 32.9226 16.428C32.8746 16.372 32.8506 16.308 32.8506 16.236C32.8506 16.212 32.8546 16.184 32.8626 16.152C32.8786 16.12 32.9026 16.08 32.9346 16.032L34.9746 13.296L33.0786 10.728C33.0546 10.688 33.0346 10.652 33.0186 10.62C33.0106 10.588 33.0066 10.556 33.0066 10.524C33.0066 10.452 33.0306 10.392 33.0786 10.344C33.1346 10.288 33.1986 10.26 33.2706 10.26H34.3146C34.4106 10.26 34.4826 10.284 34.5306 10.332C34.5786 10.38 34.6146 10.424 34.6386 10.464L35.9946 12.264L37.3506 10.464C37.3826 10.424 37.4186 10.38 37.4586 10.332C37.5066 10.284 37.5786 10.26 37.6746 10.26H38.6706C38.7426 10.26 38.8026 10.288 38.8506 10.344C38.9066 10.392 38.9346 10.448 38.9346 10.512C38.9346 10.552 38.9266 10.588 38.9106 10.62C38.9026 10.652 38.8866 10.688 38.8626 10.728L36.9426 13.32L38.9946 16.032C39.0266 16.08 39.0466 16.12 39.0546 16.152C39.0706 16.184 39.0786 16.212 39.0786 16.236C39.0786 16.308 39.0506 16.372 38.9946 16.428C38.9466 16.476 38.8866 16.5 38.8146 16.5H37.7226C37.6346 16.5 37.5666 16.48 37.5186 16.44C37.4706 16.392 37.4306 16.348 37.3986 16.308L35.9586 14.4L34.4946 16.308C34.4626 16.348 34.4226 16.392 34.3746 16.44C34.3346 16.48 34.2666 16.5 34.1706 16.5H33.1146ZM43.272 16.62C42.632 16.62 42.092 16.508 41.652 16.284C41.22 16.06 40.888 15.744 40.656 15.336C40.432 14.928 40.304 14.452 40.272 13.908C40.264 13.764 40.26 13.588 40.26 13.38C40.26 13.172 40.264 12.996 40.272 12.852C40.304 12.3 40.436 11.824 40.668 11.424C40.908 11.016 41.244 10.7 41.676 10.476C42.116 10.252 42.648 10.14 43.272 10.14C43.896 10.14 44.424 10.252 44.856 10.476C45.296 10.7 45.632 11.016 45.864 11.424C46.104 11.824 46.24 12.3 46.272 12.852C46.28 12.996 46.284 13.172 46.284 13.38C46.284 13.588 46.28 13.764 46.272 13.908C46.24 14.452 46.108 14.928 45.876 15.336C45.652 15.744 45.32 16.06 44.88 16.284C44.448 16.508 43.912 16.62 43.272 16.62ZM43.272 15.432C43.696 15.432 44.024 15.3 44.256 15.036C44.488 14.764 44.616 14.368 44.64 13.848C44.648 13.728 44.652 13.572 44.652 13.38C44.652 13.188 44.648 13.032 44.64 12.912C44.616 12.4 44.488 12.008 44.256 11.736C44.024 11.464 43.696 11.328 43.272 11.328C42.848 11.328 42.52 11.464 42.288 11.736C42.056 12.008 41.928 12.4 41.904 12.912C41.896 13.032 41.892 13.188 41.892 13.38C41.892 13.572 41.896 13.728 41.904 13.848C41.928 14.368 42.056 14.764 42.288 15.036C42.52 15.3 42.848 15.432 43.272 15.432ZM47.7336 17.82C47.6536 17.82 47.5856 17.792 47.5296 17.736C47.4736 17.68 47.4456 17.612 47.4456 17.532V15.516C47.4456 15.436 47.4736 15.368 47.5296 15.312C47.5856 15.256 47.6536 15.228 47.7336 15.228H47.8296C48.0376 15.228 48.2056 15.12 48.3336 14.904C48.4696 14.68 48.5696 14.344 48.6336 13.896C48.6976 13.44 48.7296 12.864 48.7296 12.168V10.548C48.7296 10.468 48.7576 10.4 48.8136 10.344C48.8696 10.288 48.9376 10.26 49.0176 10.26H53.2896C53.3776 10.26 53.4456 10.288 53.4936 10.344C53.5496 10.4 53.5776 10.468 53.5776 10.548V15.216H54.1176C54.2056 15.216 54.2736 15.244 54.3216 15.3C54.3776 15.356 54.4056 15.424 54.4056 15.504V17.532C54.4056 17.612 54.3776 17.68 54.3216 17.736C54.2736 17.792 54.2056 17.82 54.1176 17.82H53.1216C53.0416 17.82 52.9736 17.792 52.9176 17.736C52.8616 17.68 52.8336 17.612 52.8336 17.532V16.5H49.0176V17.532C49.0176 17.612 48.9896 17.68 48.9336 17.736C48.8776 17.792 48.8096 17.82 48.7296 17.82H47.7336ZM49.6776 15.228L52.0056 15.216V11.532H50.2416V12.336C50.2416 13.056 50.1936 13.652 50.0976 14.124C50.0016 14.596 49.8616 14.964 49.6776 15.228Z" fill="#0B1023"/>
</g>
<defs>
<clipPath id="clip0_3_1402">
<rect width="55" height="24" rx="10" fill="white"/>
</clipPath>
</defs>
</svg>
