<svg width="22" height="19" viewBox="0 0 22 19" fill="none" xmlns="http://www.w3.org/2000/svg">
<path d="M20.6844 0.971866C20.4763 0.795548 20.2243 0.678905 19.9553 0.634335C19.6862 0.589765 19.4101 0.618934 19.1563 0.718741L1.85 7.51562C1.54646 7.63127 1.28934 7.84349 1.11824 8.11961C0.94715 8.39574 0.871565 8.72044 0.903129 9.04374C0.93129 9.36691 1.06346 9.67224 1.27981 9.91395C1.49616 10.1557 1.78504 10.3207 2.10313 10.3844L6.5 11.2562V16.75C6.49985 17.0472 6.58798 17.3377 6.75323 17.5848C6.91847 17.8318 7.15337 18.0242 7.42813 18.1375C7.60997 18.2107 7.804 18.2488 8 18.25C8.19701 18.2507 8.39218 18.2121 8.57409 18.1364C8.75599 18.0608 8.92097 17.9496 9.05938 17.8094L11.4969 15.3812L15.1813 18.625C15.4533 18.8649 15.803 18.9981 16.1656 19C16.3251 19.0033 16.4839 18.9779 16.6344 18.925C16.8818 18.8467 17.1045 18.7052 17.2804 18.5145C17.4563 18.3237 17.5794 18.0904 17.6375 17.8375L21.1625 2.44374C21.2241 2.17812 21.2122 1.90072 21.1279 1.64138C21.0437 1.38204 20.8903 1.15058 20.6844 0.971866ZM16.175 17.5L8.45 10.7031L19.5781 2.66874L16.175 17.5Z" fill="#0B1023"/>
</svg>
