<svg width="23" height="13" viewBox="0 0 23 13" fill="none" xmlns="http://www.w3.org/2000/svg">
<path d="M21.9428 0.881562C22.097 0.37375 21.9428 0 21.2008 0H18.7456C18.1203 0 17.8327 0.320937 17.6785 0.678437C17.6785 0.678437 16.4279 3.64812 14.6605 5.57375C14.0894 6.13031 13.8268 6.30906 13.5142 6.30906C13.3599 6.30906 13.1223 6.13031 13.1223 5.6225V0.881562C13.1223 0.272187 12.9472 0 12.4304 0H8.57036C8.17852 0 7.94509 0.284375 7.94509 0.548437C7.94509 1.12531 8.82881 1.25937 8.92051 2.88437V6.41062C8.92051 7.1825 8.77878 7.32469 8.46615 7.32469C7.63246 7.32469 5.60658 4.34281 4.40607 0.930313C4.1643 0.268125 3.92669 0 3.29725 0H0.84203C0.141728 0 0 0.320937 0 0.678437C0 1.31219 0.833693 4.46063 3.88084 8.62063C5.91088 11.4603 8.77045 13 11.3716 13C12.9347 13 13.1265 12.6587 13.1265 12.0697C13.1265 9.35594 12.9848 9.1 13.7684 9.1C14.1311 9.1 14.7564 9.27875 16.2153 10.6478C17.8827 12.2728 18.1578 13 19.0916 13H21.5468C22.2471 13 22.6014 12.6587 22.3972 11.9844C21.9303 10.5666 18.7748 7.64969 18.633 7.45469C18.2704 6.99969 18.3746 6.79656 18.633 6.39031C18.6372 6.38625 21.6343 2.275 21.9428 0.881562Z" fill="#0B1023"/>
</svg>
