<svg width="22" height="18" viewBox="0 0 22 18" fill="none" xmlns="http://www.w3.org/2000/svg">
<path d="M20.9656 3.54376C20.8795 3.19812 20.7108 2.87854 20.474 2.61239C20.2373 2.34625 19.9395 2.14148 19.6063 2.01563C16.4 0.778133 11.2812 0.787508 11 0.787508C10.7188 0.787508 5.6 0.778133 2.39375 2.01563C2.06051 2.14148 1.76275 2.34625 1.52599 2.61239C1.28923 2.87854 1.12054 3.19812 1.03438 3.54376C0.790625 4.47188 0.5 6.17813 0.5 9.00001C0.5 11.8219 0.790625 13.5281 1.03438 14.4563C1.12054 14.8019 1.28923 15.1215 1.52599 15.3876C1.76275 15.6538 2.06051 15.8585 2.39375 15.9844C5.46875 17.175 10.2875 17.2125 10.9344 17.2125H11.0656C11.7125 17.2125 16.5312 17.175 19.6063 15.9844C19.9395 15.8585 20.2373 15.6538 20.474 15.3876C20.7108 15.1215 20.8795 14.8019 20.9656 14.4563C21.2094 13.5281 21.5 11.8219 21.5 9.00001C21.5 6.17813 21.2094 4.47188 20.9656 3.54376ZM14.2062 9.30938L9.70625 12.3094C9.64657 12.3533 9.57409 12.3764 9.5 12.375C9.4379 12.3727 9.37707 12.3567 9.32187 12.3281C9.26195 12.297 9.21184 12.2498 9.17708 12.1919C9.14233 12.134 9.1243 12.0675 9.125 12V6.00001C9.1243 5.93247 9.14233 5.86605 9.17708 5.80813C9.21184 5.75022 9.26195 5.70305 9.32187 5.67188C9.38166 5.63999 9.44897 5.62489 9.51665 5.62819C9.58433 5.63149 9.64985 5.65307 9.70625 5.69063L14.2062 8.69063C14.2585 8.72357 14.3016 8.76922 14.3315 8.82332C14.3614 8.87742 14.377 8.93821 14.377 9.00001C14.377 9.0618 14.3614 9.12259 14.3315 9.1767C14.3016 9.2308 14.2585 9.27645 14.2062 9.30938Z" fill="#0B1023"/>
</svg>
